HIERARCHY
ROOT Hips
{
	OFFSET 0.000000 88.474243 0.000000
	CHANNELS 6 Xposition Yposition Zposition Zrotation Yrotation Xrotation 
	JOINT Hips_Spine
	{
		OFFSET 0.000000 0.000000 0.000000
		CHANNELS 3 Zrotation Yrotation Xrotation
		JOINT Spine
		{
			OFFSET 0.005100 8.711998 -0.691000
			CHANNELS 3 Zrotation Yrotation Xrotation
			JOINT Spine1
			{
				OFFSET -0.009200 8.660301 -1.275000
				CHANNELS 3 Zrotation Yrotation Xrotation
				JOINT Spine2
				{
					OFFSET 0.006300 9.852501 -1.857000
					CHANNELS 3 Zrotation Yrotation Xrotation
					JOINT Spine2_Neck
					{
						OFFSET 0.000000 0.000000 0.000000
						CHANNELS 3 Zrotation Yrotation Xrotation
						JOINT Neck
						{
							OFFSET 0.016300 11.420799 -0.263300
							CHANNELS 3 Zrotation Yrotation Xrotation
							End Site #name: Head
							{
								OFFSET -0.019200 9.262405 2.362500
							}
						}
					}
					JOINT Spine2_LeftShoulder
					{
						OFFSET 0.000000 0.000000 0.000000
						CHANNELS 3 Zrotation Yrotation Xrotation
						JOINT LeftShoulder
						{
							OFFSET 5.616900 6.732201 -0.345700
							CHANNELS 3 Zrotation Yrotation Xrotation
							JOINT LeftArm
							{
								OFFSET 10.664888 -0.183372 -2.440700
								CHANNELS 3 Zrotation Yrotation Xrotation
								JOINT LeftForeArm
								{
									OFFSET 27.459126 0.000000 0.000000
									CHANNELS 3 Zrotation Yrotation Xrotation
									End Site #name: LeftHand
									{
										OFFSET 21.306858 0.000000 0.000000
									}
								}
							}
						}
					}
					JOINT Spine2_RightShoulder
					{
						OFFSET 0.000000 0.000000 0.000000
						CHANNELS 3 Zrotation Yrotation Xrotation
						JOINT RightShoulder
						{
							OFFSET -5.580300 6.737503 -0.344400
							CHANNELS 3 Zrotation Yrotation Xrotation
							JOINT RightArm
							{
								OFFSET -10.679335 -0.188484 -2.383900
								CHANNELS 3 Zrotation Yrotation Xrotation
								JOINT RightForeArm
								{
									OFFSET -27.503529 0.000000 0.000000
									CHANNELS 3 Zrotation Yrotation Xrotation
									End Site #name: RightHand
									{
										OFFSET -21.306808 0.000000 0.000000
									}
								}
							}
						}
					}
				}
			}
		}
	}
	JOINT Hips_LeftUpLeg
	{
		OFFSET 0.000000 0.000000 0.000000
		CHANNELS 3 Zrotation Yrotation Xrotation
		JOINT LeftUpLeg
		{
			OFFSET 6.857700 -6.739601 0.312100
			CHANNELS 3 Zrotation Yrotation Xrotation
			JOINT LeftLeg
			{
				OFFSET -0.367590 -34.731552 -4.572400
				CHANNELS 3 Zrotation Yrotation Xrotation
				End Site #name: LeftFoot
				{
					OFFSET 0.367590 -34.656704 -6.067400
				}
			}
		}
	}
	JOINT Hips_RightUpLeg
	{
		OFFSET 0.000000 0.000000 0.000000
		CHANNELS 3 Zrotation Yrotation Xrotation
		JOINT RightUpLeg
		{
			OFFSET -6.876100 -6.733299 0.301000
			CHANNELS 3 Zrotation Yrotation Xrotation
			JOINT RightLeg
			{
				OFFSET 0.347353 -34.795158 -4.515900
				CHANNELS 3 Zrotation Yrotation Xrotation
				End Site #name: RightFoot
				{
					OFFSET -0.347353 -34.589367 -6.070300
				}
			}
		}
	}
}
MOTION
Frames: 18
Frame Time: 0.041667
0.183664 0.044078 -0.014788 1.443383 15.611693 -6.291388 -0.000000 0.000000 0.000000 -0.709948 -1.865794 0.542675 0.226010 -1.562067 -1.682824 0.000000 0.000000 0.000000 -0.079009 -0.987468 -1.961994 3.787908 0.571474 -4.591094 0.362109 -1.764753 -2.707499 -15.658235 -5.816150 1.898560 -47.860812 -2.660617 8.510902 -0.561140 -33.693895 6.848702 0.289515 -1.326149 -0.988485 12.898823 10.614833 4.527959 57.934839 -7.298374 -6.334880 -0.868811 50.706266 0.640153 0.000000 0.000000 0.000000 -10.960204 19.929528 -5.266777 -1.957506 -2.998566 23.421961 0.000000 0.000000 0.000000 -5.353420 17.783846 -9.294415 8.430499 2.882044 -3.000059 
0.762001 -0.027612 0.121151 3.407978 15.360826 -6.738335 -0.000000 0.000000 0.000000 -2.967501 -2.238930 0.088038 0.418986 -1.664123 -1.915899 0.000000 0.000000 0.000000 -0.066214 -0.883721 -3.194901 4.214371 -2.156230 -2.088994 -0.259703 -1.629987 -3.927860 -20.671325 -2.846897 0.872363 -46.145594 -1.657380 -3.943721 -0.983405 -27.615395 5.015353 0.001485 -1.619971 -1.186423 12.937899 7.966364 1.775721 60.892129 -2.166027 -8.750424 -0.883977 52.231523 -1.062163 0.000000 0.000000 -0.000000 -14.197649 17.346746 -2.174744 -0.783181 0.908301 21.063610 0.000000 0.000000 0.000000 -9.379167 20.922022 -9.939029 8.988981 3.109427 -1.321559 
1.091058 -0.064332 0.131550 4.969514 13.159872 -6.977103 -0.000000 0.000000 -0.000000 -4.513026 -3.458758 0.362944 0.374816 -1.505939 -2.073832 0.000000 0.000000 0.000000 0.374140 -1.361142 -3.206510 3.421236 -3.366515 -2.453068 -0.623513 -1.607156 -3.622197 -23.754759 -2.207011 2.565336 -46.566702 4.318342 -7.258980 -1.308749 -27.896906 5.070250 0.034603 -1.682949 -1.194400 12.111218 7.024861 1.937234 60.197177 -0.341537 -6.617529 -0.373086 46.822125 -0.856044 0.000000 0.000000 -0.000000 -16.183689 17.110853 0.043865 -1.124074 1.435948 19.105031 0.000000 0.000000 0.000000 -11.878751 22.434264 -13.536543 8.445781 1.536233 5.655587 
1.361300 -0.093140 0.088554 5.825324 11.237373 -7.026700 -0.000000 0.000000 -0.000000 -5.897885 -3.267917 1.357109 0.338971 -1.427135 -1.995627 0.000000 0.000000 0.000000 0.521440 -1.545934 -3.123939 3.301761 -4.894864 -2.165756 -0.636712 -1.626505 -3.408656 -24.955019 -2.004855 4.148837 -45.771646 5.958503 -6.997292 -0.938398 -26.627195 7.415217 0.077730 -1.700412 -1.134031 10.710717 7.039416 1.841904 59.503324 2.092113 -5.303610 -0.190304 46.950223 -0.746294 0.000000 0.000000 -0.000000 -17.215681 17.597059 0.752169 -1.646978 1.917890 18.377812 0.000000 0.000000 0.000000 -13.759346 22.136549 -17.311929 8.011073 1.134862 13.935032 
1.680542 -0.106260 0.032000 6.201054 10.651726 -6.779303 -0.000000 0.000000 -0.000000 -6.845028 -2.753960 1.429514 0.220028 -1.395950 -1.968432 0.000000 0.000000 0.000000 0.248533 -1.681609 -3.257351 3.154046 -6.144015 -1.986098 -0.729933 -1.805009 -3.357788 -26.558202 -1.647917 5.286318 -43.089525 6.630259 -6.966518 -0.439638 -22.988931 9.315441 0.020281 -1.737157 -1.140103 9.049734 7.192251 1.703798 59.971217 3.230384 -5.245794 -0.142993 48.677893 -0.863835 0.000000 0.000000 -0.000000 -17.807895 18.211393 1.077186 -2.059480 2.110002 17.982040 0.000000 0.000000 0.000000 -15.160200 21.237473 -19.786679 7.707296 1.231189 20.029895 
2.032318 -0.106812 -0.029359 6.300207 10.343424 -6.620816 -0.000000 0.000000 -0.000000 -7.195397 -2.370611 0.849121 0.021912 -1.401765 -1.997211 0.000000 0.000000 0.000000 -0.115347 -1.755902 -3.429431 2.888618 -6.884352 -1.953580 -0.936794 -1.885440 -3.455415 -28.420271 -0.965975 5.907461 -40.906326 6.602458 -6.425519 -0.117830 -18.836761 10.579608 -0.136303 -1.798843 -1.258962 7.612493 7.324745 1.561772 61.440111 3.066251 -6.127680 0.004460 48.535861 -0.896722 0.000000 0.000000 -0.000000 -18.186324 18.661217 1.076002 -2.051864 2.318411 17.763685 0.000000 0.000000 0.000000 -15.956486 20.198998 -20.786192 7.513366 1.714142 23.532633 
2.396081 -0.097048 -0.089755 6.187125 10.513264 -6.547099 -0.000000 0.000000 -0.000000 -6.954916 -2.032284 0.099200 -0.221297 -1.347710 -2.139938 0.000000 0.000000 0.000000 -0.428291 -1.766159 -3.559673 2.630855 -7.258000 -1.829310 -1.206453 -1.887726 -3.673454 -30.441062 0.035927 6.063062 -39.034418 6.636533 -5.654570 0.302527 -14.350027 11.087016 -0.426643 -1.779544 -1.407266 6.845195 7.312294 1.455712 63.081520 2.520876 -8.069979 0.239434 47.381222 -0.846737 0.000000 0.000000 -0.000000 -18.358998 18.914070 0.809704 -1.838500 2.522627 17.768337 0.000000 0.000000 0.000000 -16.473701 19.106742 -20.815406 7.319788 2.122345 25.229643 
2.747890 -0.077509 -0.141514 5.930775 11.165779 -6.461856 -0.000000 0.000000 -0.000000 -6.734030 -1.647768 -0.569717 -0.429389 -1.237925 -2.334626 0.000000 0.000000 0.000000 -0.654207 -1.735481 -3.680829 2.401717 -7.383266 -1.601101 -1.448902 -1.832760 -3.870886 -31.960676 0.885822 5.949091 -37.659198 6.542567 -5.292739 0.580882 -11.408866 10.811671 -0.686832 -1.701089 -1.512981 6.482882 7.267496 1.428209 64.860638 1.290291 -9.710680 0.454221 45.828984 -0.820101 0.000000 0.000000 -0.000000 -18.358921 19.010668 0.315405 -1.533407 2.782386 17.908091 0.000000 0.000000 0.000000 -16.721064 17.785607 -20.385541 6.878074 2.145677 25.760029 
3.063173 -0.047091 -0.177644 5.549958 12.372574 -6.352676 -0.000000 0.000000 -0.000000 -6.855820 -1.219231 -0.904413 -0.560836 -1.105891 -2.483086 0.000000 0.000000 0.000000 -0.813894 -1.669043 -3.792415 2.345384 -7.042827 -1.383862 -1.606533 -1.746609 -4.069091 -32.791255 1.429274 5.839573 -36.838894 6.478506 -5.240732 0.696228 -10.246468 10.263032 -0.959355 -1.577872 -1.585989 6.251543 7.117642 1.421024 67.094724 0.828064 -10.426407 0.626000 43.805390 -0.737990 0.000000 0.000000 -0.000000 -18.176396 19.012066 -0.279311 -1.239659 3.020793 18.076140 0.000000 0.000000 0.000000 -16.697877 16.215782 -19.656910 6.365679 1.995556 25.510471 
3.337294 -0.004198 -0.200842 5.081260 13.816917 -6.232636 -0.000000 0.000000 -0.000000 -7.301735 -0.839891 -0.924967 -0.658963 -0.974955 -2.650785 0.000000 0.000000 0.000000 -0.944579 -1.588998 -3.899855 2.375921 -6.475335 -1.162723 -1.714020 -1.667390 -4.253597 -33.046638 1.786786 5.769425 -36.833395 6.564688 -5.353460 0.707137 -10.185995 9.746947 -1.171190 -1.440882 -1.651397 5.877176 6.930944 1.380098 68.774155 0.984086 -10.080390 0.762461 41.965661 -0.677930 0.000000 0.000000 -0.000000 -17.872148 18.941903 -0.915547 -1.004072 3.240937 18.147464 0.000000 0.000000 0.000000 -16.438603 14.367445 -18.722814 5.831726 1.729394 24.587521 
3.567369 0.048138 -0.213931 4.553976 15.153318 -6.093574 -0.000000 0.000000 -0.000000 -7.886185 -0.493227 -0.762029 -0.747615 -0.845815 -2.813759 0.000000 0.000000 0.000000 -1.088825 -1.496288 -3.985731 2.495752 -5.830322 -1.082816 -1.806639 -1.572864 -4.415148 -32.886789 2.057208 5.703416 -37.349298 6.492054 -5.557210 0.609207 -10.845513 9.435424 -1.377375 -1.295573 -1.699292 5.538018 6.788732 1.343218 69.795578 1.495702 -9.236184 0.854980 40.706053 -0.634577 0.000000 0.000000 -0.000000 -17.434703 18.877919 -1.391968 -0.755763 3.492556 18.009404 0.000000 0.000000 0.000000 -16.169054 12.337475 -17.659941 5.280124 1.358537 23.158033 
3.748320 0.109903 -0.215317 4.037548 16.287393 -5.960566 -0.000000 0.000000 -0.000000 -8.456881 -0.249075 -0.489291 -0.836426 -0.730989 -2.977535 0.000000 0.000000 0.000000 -1.240207 -1.408029 -4.066568 2.660663 -5.232906 -1.131291 -1.894936 -1.468506 -4.553348 -32.459849 2.216466 5.664005 -38.178104 6.262875 -5.564021 0.539977 -11.639553 9.223064 -1.579549 -1.150869 -1.733985 5.324544 6.634872 1.299392 70.124207 2.015454 -8.576555 0.891840 40.077764 -0.615040 0.000000 0.000000 -0.000000 -16.979949 18.819968 -1.823615 -0.598034 3.723458 17.944669 0.000000 0.000000 0.000000 -15.862860 10.307887 -16.588965 4.746391 0.913872 21.446617 
3.875267 0.178597 -0.207664 3.603797 16.997270 -5.820321 -0.000000 0.000000 -0.000000 -8.882209 -0.085019 -0.226310 -0.911117 -0.633692 -3.118149 0.000000 0.000000 0.000000 -1.368914 -1.333000 -4.132546 2.853046 -4.715775 -1.266860 -1.972246 -1.363776 -4.654072 -31.893750 2.268247 5.650234 -39.048377 5.875243 -5.303788 0.490127 -12.337364 9.082347 -1.743180 -1.012937 -1.759293 5.276598 6.504541 1.252873 69.873264 2.292263 -8.192811 0.890041 39.822693 -0.618543 0.000000 0.000000 -0.000000 -16.530187 18.758567 -2.169357 -0.557830 3.977587 17.837976 0.000000 0.000000 0.000000 -15.483006 8.471893 -15.620886 4.286234 0.399619 19.636987 
3.951924 0.246976 -0.199944 3.263804 17.312109 -5.678849 -0.000000 0.000000 -0.000000 -9.157164 0.027649 -0.043879 -0.925512 -0.572600 -3.273823 0.000000 0.000000 0.000000 -1.446706 -1.277187 -4.188595 3.070026 -4.294112 -1.461984 -2.016279 -1.276553 -4.752334 -31.203312 2.226028 5.652014 -39.863030 5.408286 -4.787932 0.448038 -12.923834 8.942505 -1.838929 -0.906442 -1.789128 5.352225 6.363067 1.203975 69.280412 2.339528 -8.233286 0.864274 39.857672 -0.626995 0.000000 0.000000 -0.000000 -16.098594 18.778177 -2.391299 -0.576072 4.375204 17.610443 0.000000 0.000000 0.000000 -15.111444 6.999219 -14.772039 3.863847 -0.174006 17.777977 
3.980844 0.311536 -0.194651 3.031267 17.272303 -5.530246 -0.000000 0.000000 -0.000000 -9.317845 0.083877 0.061195 -0.898719 -0.550159 -3.461351 0.000000 0.000000 0.000000 -1.457940 -1.247271 -4.255616 3.307028 -3.935819 -1.677924 -2.015805 -1.222463 -4.859199 -30.503471 2.159060 5.733350 -40.561378 4.989807 -4.115704 0.401387 -13.360700 8.811838 -1.849425 -0.850537 -1.841876 5.435128 6.205674 1.150021 68.570909 2.151685 -8.492259 0.828454 40.123630 -0.635155 0.000000 0.000000 -0.000000 -15.674288 18.963544 -2.475187 -0.684206 4.721178 17.261397 0.000000 0.000000 0.000000 -14.776996 5.936507 -14.108601 3.532075 -0.796984 16.030300 
3.964548 0.369755 -0.194965 2.877222 17.010817 -5.412722 -0.000000 0.000000 -0.000000 -9.409102 0.084325 0.131575 -0.830682 -0.578421 -3.680961 0.000000 0.000000 0.000000 -1.393179 -1.247463 -4.356871 3.506389 -3.714763 -1.873641 -1.968052 -1.222555 -4.985885 -29.789796 2.032093 5.877667 -41.189036 4.620672 -3.363881 0.348966 -13.678771 8.691563 -1.776977 -0.853400 -1.918204 5.466917 6.022013 1.096887 67.950905 1.695593 -8.677653 0.791303 40.522493 -0.636403 0.000000 0.000000 -0.000000 -15.297946 19.350965 -2.495293 -0.829822 4.925883 16.977461 0.000000 0.000000 0.000000 -14.477519 5.243735 -13.698196 3.290503 -1.390044 14.658822 
3.905915 0.417766 -0.204636 2.796994 16.494599 -5.331888 -0.000000 0.000000 -0.000000 -9.433157 0.045970 0.226029 -0.730009 -0.654809 -3.912905 0.000000 0.000000 0.000000 -1.256471 -1.277265 -4.489375 3.638251 -3.640100 -2.043394 -1.875296 -1.245701 -5.135900 -29.046520 1.869691 6.086692 -41.798685 4.387219 -2.581211 0.292295 -13.923922 8.595808 -1.626274 -0.922819 -2.022462 5.431451 5.814182 1.049503 67.466549 1.109574 -8.871506 0.753484 40.955009 -0.636182 0.000000 0.000000 -0.000000 -15.001136 19.883363 -2.478402 -0.989250 4.924113 16.751408 0.000000 0.000000 0.000000 -14.198611 4.864550 -13.567760 3.179684 -1.762674 13.766498 
3.812073 0.457149 -0.222244 2.775345 15.767675 -5.290661 -0.000000 0.000000 -0.000000 -9.399230 -0.030339 0.303390 -0.574229 -0.782210 -4.131042 0.000000 0.000000 0.000000 -1.063846 -1.329713 -4.632427 3.695292 -3.710193 -2.198304 -1.729351 -1.318090 -5.319469 -28.263729 1.683871 6.334442 -42.408522 4.236083 -1.892983 0.214533 -14.124703 8.540561 -1.406560 -1.046010 -2.139227 5.307642 5.594996 1.009048 67.076767 0.576503 -9.239662 0.714965 41.294219 -0.644114 0.000000 0.000000 -0.000000 -14.729742 20.485207 -2.433159 -1.174582 4.806876 16.575703 0.000000 0.000000 0.000000 -13.930072 4.765991 -13.705840 3.177889 -1.903652 13.348821 
